<?xml version="1.0" encoding="utf-8"?>
<!-- Generator: Adobe Illustrator 16.0.0, SVG Export Plug-In . SVG Version: 6.00 Build 0)  -->
<!DOCTYPE svg PUBLIC "-//W3C//DTD SVG 1.1//EN" "http://www.w3.org/Graphics/SVG/1.1/DTD/svg11.dtd">
<svg version="1.1" id="Calque_1" xmlns="http://www.w3.org/2000/svg" xmlns:xlink="http://www.w3.org/1999/xlink" x="0px" y="0px"
	 width="595.279px" height="512px" viewBox="0 83.445 595.279 512" enable-background="new 0 83.445 595.279 512"
	 xml:space="preserve">
<g>
	<g>
		<path fill="#95C13E" d="M248.009,466.224c-10.644-1.512-21.612,2.639-32.201-1.637c-2.653-1.072-3.801,1.906-5.275,3.354
			c-27.596,27.123-61.435,42.59-98.589,50.455c-13.547,2.866-27.703,5.72-41.944,4.145c-4.823-0.534-8.94,3.278-13.747,1.938
			c-2.083-0.578-6.19,2.159-5.918-2.203c0.238-3.8-3.006-8.385,2.484-11.612c6.859-4.03,13.232-8.896,19.771-13.468
			c20.102-14.062,30.716-34.031,33.268-57.786c0.587-5.468,0.059-12.865-7.783-18.071c-33.128-21.988-56.869-52.291-70.483-89.6
			c-6.562-17.979-9.801-37.309-8.334-56.62c3.094-40.748,18.696-76.04,47.347-105.667c27.933-28.884,60.984-48.895,99.329-60.43
			c19.736-5.937,39.669-10.321,60.422-11.464c9.741-0.536,19.513-2.241,29.272-1.54c35.474,2.548,70.174,8.229,103.08,23.019
			c29.866,13.422,56.32,31.447,77.624,56.08c19.682,22.758,33.876,48.683,38.59,79.163c5.308,34.315,2.243,67.504-13.915,98.421
			c-17.5,33.481-43.717,58.991-76.057,78.481c-25.042,15.09-52.185,25.071-80.435,30.979
			C286.18,465.998,267.124,468.541,248.009,466.224z"/>
		<path fill="#54C7DD" d="M247.672,503.322c65.326,0.019,122.767-17.479,173.853-53.141c34.047-23.77,60.841-54.727,76.85-93.774
			c9.099-22.188,15.575-45.069,15.263-69.389c-0.078-6.02-0.013-12.038-0.013-20.282c12.852,10.694,22.578,21.355,30.897,33.553
			c16.65,24.411,26.32,51.24,25.079,80.756c-1.396,33.313-13.338,63.078-36.274,87.757c-9.677,10.407-19.389,21.007-31.964,28.124
			c-7.609,4.309-8.004,11.514-7.072,18.346c3.463,25.479,17.205,44.448,39.369,56.933c5.107,2.876,6.191,6.185,4.928,10.489
			c-1.198,4.085-5.426,1.845-8.174,1.845c-42.525,0.004-82.28-10.104-115.029-38.021c-10.435-8.896-19.325-11.504-32.197-10.661
			c-34.063,2.229-67.403-2.671-99.251-15.339C272.343,515.908,261.326,509.855,247.672,503.322z"/>
	</g>
	<g>
		<path fill="#FFFFFF" d="M134.076,241.257c-3.2,3.28-7.868,5.642-14,7.08c3.306,0.908,5.813,2.389,7.52,4.44
			c1.706,2.054,2.56,4.414,2.56,7.08c0,4.214-1.319,7.867-3.96,10.96c-2.64,3.094-6.493,5.479-11.56,7.16
			c-5.068,1.68-11.174,2.52-18.32,2.52c-2.667,0-4.8-0.08-6.399-0.24c-0.055,1.493-0.694,2.613-1.92,3.36
			c-1.229,0.746-2.801,1.12-4.721,1.12s-3.239-0.428-3.96-1.28c-0.72-0.854-1.026-2.106-0.92-3.76
			c0.48-7.466,1.413-15.292,2.8-23.479c1.388-8.187,3.146-16.093,5.28-23.721c0.373-1.332,1.12-2.266,2.24-2.8
			c1.12-0.532,2.586-0.8,4.4-0.8c3.252,0,4.88,0.907,4.88,2.72c0,0.748-0.16,1.601-0.48,2.562c-1.388,4.158-2.773,9.8-4.16,16.92
			c-1.387,7.119-2.374,13.906-2.96,20.358c2.561,0.214,4.641,0.32,6.24,0.32c7.466,0,12.946-1.08,16.44-3.24
			c3.491-2.16,5.239-4.92,5.239-8.28c0-2.346-1-4.318-3-5.92c-2-1.6-5.347-2.479-10.04-2.64c-1.066-0.053-1.813-0.32-2.239-0.8
			c-0.429-0.48-0.641-1.253-0.641-2.32c0-1.546,0.32-2.8,0.96-3.76c0.641-0.96,1.813-1.467,3.521-1.521
			c3.786-0.104,7.212-0.666,10.279-1.68c3.066-1.013,5.48-2.438,7.24-4.28c1.76-1.84,2.641-3.985,2.641-6.438
			c0-3.093-1.521-5.532-4.561-7.32c-3.04-1.786-7.708-2.68-14-2.68c-5.708,0-11.228,0.732-16.56,2.2
			c-5.333,1.467-9.868,3.318-13.601,5.56c-1.708,1.014-3.146,1.521-4.319,1.521c-0.96,0-1.694-0.333-2.2-1
			c-0.507-0.667-0.76-1.508-0.76-2.521c0-1.332,0.279-2.479,0.84-3.439c0.56-0.961,1.906-2.053,4.04-3.279
			c4.479-2.562,9.731-4.562,15.76-6c6.026-1.44,12.186-2.16,18.479-2.16c9.652,0,16.853,1.628,21.601,4.88
			c4.747,3.254,7.12,7.548,7.12,12.88C138.875,234.071,137.275,237.978,134.076,241.257z"/>
		<path fill="#FFFFFF" d="M171.395,263.857c0.4,0.64,0.601,1.52,0.601,2.64c0,2.134-0.508,3.788-1.521,4.96
			c-2.293,2.828-4.788,5.147-7.479,6.96c-2.694,1.814-5.748,2.722-9.16,2.722c-4.694,0-8.174-2.134-10.44-6.4
			s-3.399-9.786-3.399-16.56c0-6.508,0.84-13.922,2.52-22.24c1.68-8.32,4.16-15.467,7.44-21.44c3.279-5.973,7.187-8.96,11.72-8.96
			c2.56,0,4.572,1.188,6.04,3.562c1.466,2.373,2.2,5.772,2.2,10.198c0,6.349-1.761,13.708-5.28,22.08
			c-3.52,8.374-8.294,16.668-14.32,24.88c0.372,2.188,0.986,3.748,1.84,4.682s1.974,1.398,3.36,1.398c2.188,0,4.106-0.626,5.76-1.88
			c1.652-1.252,3.761-3.398,6.32-6.438c0.64-0.746,1.36-1.12,2.16-1.12C170.448,262.897,170.995,263.219,171.395,263.857z
			 M155.755,220.098c-1.548,4.427-2.908,9.92-4.08,16.479c-1.174,6.562-1.814,12.854-1.92,18.88c3.786-6.238,6.8-12.492,9.04-18.76
			c2.24-6.267,3.359-11.986,3.359-17.16c0-4.053-0.747-6.08-2.239-6.08C158.688,213.457,157.301,215.671,155.755,220.098z"/>
		<path fill="#FFFFFF" d="M166.635,277.537c-1.974-2.398-2.96-5.546-2.96-9.438c0-4.268,0.986-8.308,2.96-12.12
			c1.973-3.813,4.6-6.88,7.88-9.2s6.76-3.48,10.44-3.48c1.172,0,1.96,0.229,2.359,0.682c0.4,0.453,0.732,1.268,1,2.438
			c1.12-0.212,2.292-0.318,3.521-0.318c2.611,0,3.92,0.934,3.92,2.8c0,1.12-0.4,3.787-1.2,8c-1.228,6.134-1.84,10.398-1.84,12.8
			c0,0.8,0.2,1.44,0.6,1.92c0.4,0.48,0.92,0.72,1.561,0.72c1.013,0,2.24-0.651,3.68-1.96c1.44-1.306,3.386-3.426,5.84-6.358
			c0.641-0.746,1.36-1.12,2.16-1.12c0.692,0,1.24,0.32,1.64,0.96c0.4,0.64,0.601,1.52,0.601,2.64c0,2.135-0.507,3.788-1.521,4.96
			c-2.188,2.722-4.507,5.015-6.96,6.88c-2.454,1.868-4.828,2.802-7.12,2.802c-1.76,0-3.374-0.602-4.84-1.802
			c-1.467-1.198-2.574-2.84-3.319-4.92c-2.774,4.48-6.269,6.722-10.48,6.722C171.248,281.138,168.607,279.938,166.635,277.537z
			 M180.795,270.978c1.065-1.388,1.84-3.228,2.32-5.521l2.96-14.72c-2.24,0.054-4.309,0.894-6.2,2.52
			c-1.895,1.629-3.4,3.774-4.521,6.44c-1.12,2.668-1.68,5.494-1.68,8.48c0,1.652,0.333,2.88,1,3.68s1.586,1.2,2.76,1.2
			C178.607,273.058,179.728,272.365,180.795,270.978z"/>
		<path fill="#FFFFFF" d="M246.474,257.219c0.373,0.692,0.561,1.572,0.561,2.64c0,1.334-0.188,2.36-0.561,3.08
			c-0.374,0.72-0.96,1.214-1.76,1.479c-3.2,1.12-6.72,1.762-10.561,1.92c-1.067,4.429-3.079,8-6.04,10.722
			c-2.96,2.72-6.228,4.08-9.8,4.08c-5.387,0-9.307-2.054-11.76-6.16c-2.454-4.106-3.68-10.054-3.68-17.84
			c0-6.882,0.853-14.36,2.56-22.44c1.706-8.08,4.2-14.96,7.48-20.64c3.279-5.682,7.187-8.521,11.72-8.521
			c2.452,0,4.426,1.054,5.92,3.16c1.492,2.107,2.24,4.84,2.24,8.2c0,4.374-0.827,8.72-2.48,13.04
			c-1.653,4.318-4.399,8.854-8.239,13.6c3.571,0.269,6.479,1.748,8.72,4.44s3.573,6.014,4,9.96c2.506-0.16,5.493-0.692,8.96-1.602
			c0.32-0.104,0.692-0.158,1.12-0.158C245.566,256.178,246.1,256.524,246.474,257.219z M223.034,270.577
			c1.279-1.386,2.132-3.386,2.56-6c-1.654-1.12-2.92-2.586-3.8-4.398c-0.88-1.813-1.32-3.733-1.32-5.762
			c0-0.746,0.106-1.76,0.32-3.04h-0.24c-2.188,0-4.014,1.08-5.479,3.24c-1.469,2.16-2.2,5.054-2.2,8.68c0,3.04,0.572,5.36,1.72,6.96
			c1.146,1.602,2.492,2.4,4.04,2.4C220.286,272.657,221.753,271.965,223.034,270.577z M219.313,218.219
			c-1.253,3.173-2.414,7.479-3.479,12.92c-1.067,5.438-1.867,11.387-2.4,17.84c3.521-6.453,6.333-12.146,8.44-17.08
			c2.105-4.934,3.16-9.32,3.16-13.16c0-1.706-0.2-3.013-0.601-3.92c-0.399-0.906-0.947-1.36-1.64-1.36
			C221.726,213.457,220.566,215.045,219.313,218.219z"/>
		<path fill="#FFFFFF" d="M272.113,263.857c0.4,0.64,0.601,1.52,0.601,2.64c0,2.134-0.507,3.788-1.521,4.96
			c-2.293,2.828-4.788,5.147-7.479,6.96c-2.694,1.814-5.748,2.722-9.16,2.722c-4.694,0-8.174-2.134-10.44-6.4
			s-3.399-9.786-3.399-16.56c0-6.508,0.84-13.922,2.52-22.24c1.681-8.32,4.16-15.467,7.44-21.44c3.28-5.973,7.187-8.96,11.72-8.96
			c2.561,0,4.572,1.188,6.04,3.562c1.466,2.373,2.2,5.772,2.2,10.198c0,6.349-1.76,13.708-5.28,22.08
			c-3.52,8.374-8.294,16.668-14.319,24.88c0.371,2.188,0.985,3.748,1.84,4.682c0.853,0.934,1.973,1.398,3.359,1.398
			c2.188,0,4.106-0.626,5.761-1.88c1.651-1.252,3.76-3.398,6.319-6.438c0.641-0.746,1.36-1.12,2.16-1.12
			C271.166,262.897,271.713,263.219,272.113,263.857z M256.473,220.098c-1.548,4.427-2.908,9.92-4.08,16.479
			c-1.174,6.562-1.813,12.854-1.92,18.88c3.786-6.238,6.8-12.492,9.04-18.76c2.24-6.267,3.36-11.986,3.36-17.16
			c0-4.053-0.748-6.08-2.24-6.08C259.405,213.457,258.019,215.671,256.473,220.098z"/>
		<path fill="#FFFFFF" d="M267.353,277.537c-1.974-2.398-2.96-5.546-2.96-9.438c0-4.268,0.986-8.308,2.96-12.12
			c1.974-3.813,4.601-6.88,7.88-9.2c3.28-2.32,6.761-3.48,10.44-3.48c1.172,0,1.96,0.229,2.36,0.682
			c0.399,0.453,0.731,1.268,1,2.438c1.119-0.212,2.292-0.318,3.52-0.318c2.612,0,3.92,0.934,3.92,2.8c0,1.12-0.4,3.787-1.2,8
			c-1.228,6.134-1.84,10.398-1.84,12.8c0,0.8,0.2,1.44,0.601,1.92c0.399,0.48,0.92,0.72,1.56,0.72c1.013,0,2.239-0.651,3.681-1.96
			c1.439-1.306,3.386-3.426,5.84-6.358c0.641-0.746,1.359-1.12,2.16-1.12c0.691,0,1.239,0.32,1.639,0.96
			c0.4,0.64,0.602,1.52,0.602,2.64c0,2.135-0.507,3.788-1.521,4.96c-2.188,2.722-4.507,5.015-6.959,6.88
			c-2.454,1.868-4.827,2.802-7.12,2.802c-1.761,0-3.374-0.602-4.841-1.802c-1.467-1.198-2.573-2.84-3.319-4.92
			c-2.774,4.48-6.269,6.722-10.48,6.722C271.965,281.138,269.325,279.938,267.353,277.537z M281.513,270.978
			c1.066-1.388,1.84-3.228,2.32-5.521l2.96-14.72c-2.24,0.054-4.309,0.894-6.2,2.52c-1.895,1.629-3.4,3.774-4.521,6.44
			c-1.119,2.668-1.68,5.494-1.68,8.48c0,1.652,0.333,2.88,1,3.68s1.586,1.2,2.76,1.2
			C279.325,273.058,280.445,272.365,281.513,270.978z"/>
		<path fill="#FFFFFF" d="M340.352,263.857c0.4,0.64,0.6,1.52,0.6,2.64c0,2.134-0.508,3.788-1.52,4.96
			c-2.294,2.828-4.801,5.147-7.521,6.96c-2.721,1.814-5.841,2.722-9.36,2.722c-10.879,0-16.319-7.653-16.319-22.96
			c0-2.348,0.08-4.722,0.239-7.12h-3.119c-1.6,0-2.68-0.293-3.24-0.88c-0.56-0.588-0.84-1.521-0.84-2.802
			c0-2.985,1.199-4.479,3.601-4.479h4.561c0.906-5.866,2.293-11.228,4.16-16.08c1.865-4.854,4.119-8.72,6.76-11.6
			c2.64-2.882,5.48-4.32,8.521-4.32c2.239,0,4,0.987,5.279,2.96c1.28,1.974,1.92,4.454,1.92,7.438
			c0,8.269-3.468,15.469-10.398,21.602h8.959c0.854,0,1.467,0.188,1.84,0.56c0.373,0.374,0.561,1.067,0.561,2.08
			c0,3.682-3.014,5.521-9.04,5.521h-9.76c-0.106,2.667-0.16,4.747-0.16,6.238c0,5.549,0.653,9.44,1.96,11.682
			c1.308,2.241,3.373,3.358,6.2,3.358c2.292,0,4.319-0.691,6.08-2.079c1.76-1.387,3.84-3.467,6.239-6.239
			c0.641-0.746,1.361-1.12,2.16-1.12C339.404,262.897,339.95,263.219,340.352,263.857z M322.031,221.577
			c-0.986,2-1.92,4.773-2.8,8.32s-1.614,7.479-2.2,11.8c3.146-2.72,5.506-5.772,7.08-9.16c1.572-3.386,2.359-6.466,2.359-9.24
			c0-3.146-0.587-4.72-1.76-4.72C323.911,218.577,323.018,219.577,322.031,221.577z"/>
		<path fill="#FFFFFF" d="M376.87,257.219c0.372,0.692,0.561,1.572,0.561,2.64c0,2.56-0.773,4.08-2.319,4.56
			c-3.201,1.12-6.721,1.762-10.561,1.92c-1.015,4.48-3.015,8.068-6,10.762c-2.987,2.692-6.373,4.04-10.16,4.04
			c-3.199,0-5.935-0.772-8.199-2.32c-2.268-1.546-3.988-3.6-5.16-6.16c-1.174-2.56-1.76-5.332-1.76-8.32
			c0-4.052,0.771-7.666,2.319-10.84c1.546-3.172,3.681-5.651,6.398-7.438c2.722-1.786,5.732-2.682,9.041-2.682
			c4.053,0,7.32,1.4,9.8,4.2c2.48,2.8,3.934,6.254,4.36,10.36c2.506-0.16,5.492-0.692,8.959-1.602
			c0.427-0.104,0.801-0.158,1.121-0.158C375.963,256.178,376.496,256.524,376.87,257.219z M353.471,270.577
			c1.252-1.386,2.093-3.386,2.52-6c-1.652-1.12-2.92-2.586-3.799-4.398c-0.881-1.813-1.32-3.733-1.32-5.762
			c0-0.853,0.08-1.706,0.24-2.56h-0.399c-2.135,0-3.908,1.027-5.32,3.08c-1.414,2.054-2.119,4.947-2.119,8.68
			c0,2.935,0.572,5.174,1.719,6.72c1.146,1.549,2.493,2.32,4.041,2.32C350.737,272.657,352.217,271.965,353.471,270.577z"/>
		<path fill="#FFFFFF" d="M371.949,277.938c-0.827-2.133-1.239-5.547-1.239-10.24c0-6.933,0.985-13.52,2.96-19.76
			c0.479-1.547,1.266-2.682,2.358-3.4s2.627-1.08,4.602-1.08c1.065,0,1.813,0.135,2.239,0.4c0.428,0.268,0.641,0.772,0.641,1.52
			c0,0.854-0.4,2.774-1.199,5.762c-0.534,2.134-0.961,4-1.281,5.6c-0.318,1.6-0.587,3.574-0.799,5.92
			c1.76-4.586,3.732-8.32,5.92-11.2c2.187-2.88,4.332-4.933,6.439-6.16c2.105-1.226,4.04-1.84,5.801-1.84
			c3.466,0,5.199,1.734,5.199,5.2c0,2.08-0.588,5.84-1.761,11.28c-1.014,4.64-1.52,7.707-1.52,9.2c0,2.134,0.771,3.198,2.319,3.198
			c1.065,0,2.333-0.651,3.8-1.96c1.467-1.306,3.427-3.426,5.881-6.358c0.64-0.746,1.359-1.12,2.159-1.12
			c0.691,0,1.24,0.32,1.641,0.96c0.399,0.64,0.601,1.52,0.601,2.64c0,2.135-0.509,3.788-1.521,4.96
			c-2.294,2.828-4.761,5.147-7.399,6.96c-2.641,1.814-5.641,2.722-9,2.722c-2.721,0-4.774-0.787-6.16-2.36
			c-1.389-1.572-2.08-3.853-2.08-6.84c0-1.493,0.372-4.16,1.12-8c0.691-3.36,1.04-5.681,1.04-6.96c0-0.854-0.294-1.28-0.881-1.28
			c-0.692,0-1.668,0.895-2.92,2.68c-1.254,1.788-2.533,4.147-3.84,7.08c-1.308,2.935-2.359,6.027-3.16,9.28
			c-0.588,2.508-1.268,4.2-2.04,5.08c-0.773,0.88-1.986,1.32-3.64,1.32C374.202,281.138,372.776,280.071,371.949,277.938z"/>
		<path fill="#FFFFFF" d="M418.748,280.978c-1.468-1.28-2.199-2.722-2.199-4.32c0-1.386,0.506-2.586,1.52-3.6
			c1.013-1.014,2.507-1.521,4.48-1.521c0.691,0,1.506,0.067,2.438,0.2c0.934,0.134,1.642,0.228,2.12,0.28
			c-0.054-1.388-0.359-2.692-0.92-3.92c-0.56-1.228-1.268-2.413-2.12-3.562c-0.854-1.146-1.653-2.146-2.398-3
			c-1.654,3.147-3.295,5.76-4.921,7.84c-1.628,2.08-3.399,4.055-5.319,5.92c-0.96,0.96-1.975,1.44-3.04,1.44
			c-0.854,0-1.547-0.307-2.08-0.92c-0.532-0.612-0.8-1.373-0.8-2.28c0-1.065,0.374-2.053,1.12-2.96l1.038-1.28
			c2.935-3.626,5.146-6.611,6.642-8.96c0.96-1.546,1.933-3.386,2.92-5.52c0.986-2.133,2.28-5.04,3.88-8.72
			c1.013-2.348,3.12-3.521,6.32-3.521c1.492,0,2.532,0.134,3.12,0.4c0.586,0.268,0.88,0.692,0.88,1.278
			c0,0.32-0.107,0.828-0.32,1.521c-0.214,0.693-0.507,1.388-0.88,2.08c-0.96,1.92-1.439,3.548-1.439,4.88
			c0,0.8,0.279,1.68,0.841,2.64c0.56,0.96,1.426,2.16,2.6,3.602c1.706,2.239,3,4.146,3.88,5.72c0.88,1.574,1.32,3.294,1.32,5.16
			c0,2.24-0.521,4.359-1.561,6.359c-1.04,2-2.493,3.613-4.359,4.841c-1.867,1.226-4,1.84-6.4,1.84
			C422.335,282.897,420.215,282.257,418.748,280.978z"/>
		<path fill="#FFFFFF" d="M186.193,375.218c-1.199-1.279-1.8-2.961-1.8-5.039c0-2.4,0.68-4.32,2.04-5.762
			c1.36-1.438,3.268-2.16,5.72-2.16c2.347,0,4.12,0.574,5.32,1.722c1.2,1.146,1.8,2.84,1.8,5.08c0,2.453-0.693,4.413-2.08,5.88
			c-1.388,1.468-3.279,2.2-5.68,2.2C189.166,377.138,187.393,376.497,186.193,375.218z"/>
		<path fill="#FFFFFF" d="M208.033,372.697c-2.907-2.96-4.36-6.866-4.36-11.72c0-4.32,0.853-8.106,2.56-11.36
			c1.706-3.252,3.92-5.76,6.641-7.52c2.72-1.762,5.572-2.642,8.56-2.642c2.934,0,5.213,0.868,6.84,2.602
			c1.626,1.732,2.44,3.96,2.44,6.68c0,2.24-0.494,4.134-1.48,5.68c-0.987,1.548-2.279,2.32-3.88,2.32
			c-1.014,0-1.828-0.24-2.439-0.72c-0.614-0.48-0.92-1.146-0.92-2c0-0.373,0.053-0.8,0.159-1.28s0.187-0.826,0.24-1.04
			c0.268-0.8,0.4-1.546,0.4-2.24c0-0.691-0.174-1.226-0.521-1.6c-0.348-0.373-0.84-0.562-1.479-0.562
			c-1.229,0-2.374,0.549-3.44,1.642c-1.067,1.094-1.92,2.573-2.56,4.438c-0.641,1.868-0.96,3.92-0.96,6.16
			c0,6.188,2.691,9.28,8.08,9.28c2.187,0,4.546-0.732,7.08-2.2c2.532-1.466,5.025-3.666,7.479-6.6c0.64-0.746,1.36-1.12,2.16-1.12
			c0.692,0,1.24,0.319,1.64,0.96c0.4,0.64,0.601,1.52,0.601,2.64c0,2.027-0.507,3.682-1.521,4.96c-2.508,3.094-5.508,5.48-9,7.16
			c-3.494,1.68-6.868,2.521-10.12,2.521C215.005,377.138,210.939,375.657,208.033,372.697z"/>
		<path fill="#FFFFFF" d="M276.793,353.218c0.372,0.693,0.56,1.573,0.56,2.641c0,2.56-0.772,4.08-2.319,4.56
			c-3.2,1.12-6.721,1.762-10.561,1.92c-1.014,4.48-3.014,8.068-6,10.762c-2.987,2.692-6.374,4.04-10.16,4.04
			c-3.2,0-5.934-0.772-8.2-2.32c-2.268-1.546-3.987-3.6-5.159-6.16c-1.175-2.56-1.761-5.332-1.761-8.32
			c0-4.052,0.772-7.666,2.32-10.84c1.546-3.172,3.68-5.651,6.4-7.438c2.72-1.786,5.731-2.682,9.04-2.682c4.053,0,7.319,1.4,9.8,4.2
			c2.479,2.8,3.932,6.254,4.359,10.36c2.507-0.16,5.493-0.692,8.96-1.602c0.427-0.104,0.801-0.158,1.12-0.158
			C275.885,352.178,276.419,352.524,276.793,353.218z M253.393,366.577c1.252-1.386,2.093-3.386,2.521-6
			c-1.654-1.12-2.92-2.586-3.801-4.398c-0.88-1.813-1.319-3.733-1.319-5.762c0-0.853,0.08-1.706,0.24-2.56h-0.4
			c-2.134,0-3.908,1.027-5.32,3.08c-1.414,2.054-2.12,4.946-2.12,8.68c0,2.934,0.572,5.174,1.721,6.72
			c1.146,1.549,2.492,2.32,4.04,2.32C250.659,368.657,252.139,367.965,253.393,366.577z"/>
		<path fill="#FFFFFF" d="M271.872,373.938c-0.828-2.133-1.24-5.547-1.24-10.24c0-6.933,0.986-13.52,2.96-19.76
			c0.479-1.547,1.266-2.682,2.36-3.4c1.093-0.72,2.626-1.08,4.6-1.08c1.066,0,1.813,0.134,2.24,0.4
			c0.426,0.268,0.64,0.772,0.64,1.52c0,0.854-0.399,2.774-1.2,5.762c-0.534,2.134-0.96,3.986-1.279,5.56
			c-0.32,1.574-0.588,3.534-0.801,5.88c1.44-4.16,3.16-7.68,5.16-10.56s4.052-5.026,6.16-6.44c2.106-1.412,4.093-2.12,5.96-2.12
			c1.866,0,3.187,0.429,3.96,1.28c0.771,0.854,1.16,2.16,1.16,3.92c0,1.708-0.507,4.8-1.521,9.28
			c-0.427,1.92-0.719,3.358-0.879,4.318c1.76-4.479,3.72-8.132,5.879-10.96c2.16-2.825,4.281-4.84,6.36-6.04
			c2.08-1.198,4-1.8,5.761-1.8c1.705,0,3,0.44,3.879,1.32c0.881,0.88,1.32,2.174,1.32,3.88c0,1.388-0.293,4-0.88,7.84
			c-0.534,3.254-0.96,6.334-1.28,9.24c-0.319,2.907-0.479,6.147-0.479,9.72c0,2.027-0.414,3.48-1.24,4.36
			c-0.827,0.88-2.174,1.32-4.04,1.32c-1.76,0-3.04-0.453-3.84-1.36c-0.8-0.906-1.2-2.267-1.2-4.08c0-2.133,0.372-5.652,1.12-10.56
			c0.641-4.268,0.96-6.986,0.96-8.16c0-0.854-0.294-1.28-0.88-1.28c-0.693,0-1.681,0.895-2.96,2.68
			c-1.28,1.788-2.561,4.147-3.841,7.08c-1.279,2.935-2.319,6.027-3.119,9.28c-0.589,2.56-1.269,4.268-2.04,5.12
			c-0.774,0.854-2.014,1.28-3.72,1.28c-1.761,0-3.08-0.842-3.96-2.521c-0.881-1.68-1.32-3.72-1.32-6.12c0-2.025,0.266-4.96,0.8-8.8
			c0.426-3.412,0.64-5.652,0.64-6.72c0-0.854-0.293-1.28-0.88-1.28c-0.8,0-1.813,0.96-3.04,2.88c-1.228,1.92-2.414,4.374-3.56,7.36
			c-1.147,2.986-2.067,5.92-2.76,8.8c-0.588,2.508-1.269,4.2-2.04,5.08c-0.774,0.88-1.988,1.32-3.641,1.32
			C274.125,377.138,272.698,376.071,271.872,373.938z"/>
	</g>
</g>
</svg>
